<svg xmlns="http://www.w3.org/2000/svg" version="1.1" xmlns:xlink="http://www.w3.org/1999/xlink" width="1000" height="1000"><g clip-path="url(#SvgjsClipPath1133)"><rect width="1000" height="1000" fill="#ffffff"></rect><g transform="matrix(1,0,0,1,100,100)"><svg xmlns="http://www.w3.org/2000/svg" version="1.1" xmlns:xlink="http://www.w3.org/1999/xlink" width="800px" height="800px"><svg fill="#000000" width="800px" height="800px" viewBox="0 0 56 56" id="Layer_1" version="1.1" xml:space="preserve" xmlns="http://www.w3.org/2000/svg" xmlns:xlink="http://www.w3.org/1999/xlink">

<g>

<path d="M33.7,27.5c-0.3-0.1-7.3-1.5-11.2,2.1c-3.4,3.1-3.7,9-3.7,10.7l-1.5,1.3c-0.2,0.2-0.3,0.5-0.3,0.7c0,0.2,0.1,0.5,0.3,0.7   c0.2,0.2,0.5,0.3,0.7,0.3c0.2,0,0.5-0.1,0.7-0.3l1.5-1.3c0.5,0.1,1.4,0.1,2.5,0.1c2.6,0,6.4-0.4,8.8-2.7c3.9-3.6,3.1-10.7,3.1-11   C34.5,27.9,34.1,27.6,33.7,27.5z M30.1,37.8C30.1,37.8,30.1,37.8,30.1,37.8c-2,1.9-5.6,2.2-7.9,2.1l5.1-4.6   c0.2-0.2,0.3-0.5,0.3-0.7c0-0.2-0.1-0.5-0.3-0.7c-0.4-0.4-1-0.4-1.4-0.1l-5.1,4.6c0.2-2.2,1-5.5,3-7.3c2.5-2.3,7-2,8.7-1.8   C32.7,31.1,32.6,35.5,30.1,37.8z"></path>

<path d="M35,8.2H16.1c-1.4,0-2.5,1.1-2.5,2.5v7.5c0,1.4,1.1,2.5,2.5,2.5H35c1.4,0,2.5-1.1,2.5-2.5v-7.5C37.5,9.3,36.4,8.2,35,8.2z    M35.5,18.2c0,0.3-0.2,0.5-0.5,0.5H16.1c-0.3,0-0.5-0.2-0.5-0.5v-7.5c0-0.3,0.2-0.5,0.5-0.5H35c0.3,0,0.5,0.2,0.5,0.5V18.2z"></path>

<path d="M27.9,11.4h-1c-0.6,0-1,0.4-1,1s0.4,1,1,1h1c0.6,0,1-0.4,1-1S28.5,11.4,27.9,11.4z"></path>

<path d="M33.1,11.4h-1c-0.6,0-1,0.4-1,1s0.4,1,1,1h1c0.6,0,1-0.4,1-1S33.6,11.4,33.1,11.4z"></path>

<path d="M27.9,15.1h-1c-0.6,0-1,0.4-1,1s0.4,1,1,1h1c0.6,0,1-0.4,1-1S28.5,15.1,27.9,15.1z"></path>

<path d="M33.1,15.1h-1c-0.6,0-1,0.4-1,1s0.4,1,1,1h1c0.6,0,1-0.4,1-1S33.6,15.1,33.1,15.1z"></path>

<path d="M46.8,12.5C46.8,12.5,46.8,12.5,46.8,12.5l-1.7-1.7c-0.4-0.4-1-0.4-1.4,0s-0.4,1,0,1.4l1.4,1.4v6.1l4.4,3V38   c0,0.6-0.5,1.1-1.1,1.1c-0.6,0-1.1-0.5-1.1-1.1v-9.9c0-1.1-0.9-2-2-2h-1.9v-19c0-2.2-1.8-4.1-4.1-4.1H11.9C9.7,3,7.8,4.8,7.8,7.1   v37.1c0,0.8,0.2,1.5,0.6,2.1H6.9c-1.3,0-2.4,1.1-2.4,2.4v2c0,1.3,1.1,2.4,2.4,2.4h37.4c1.3,0,2.4-1.1,2.4-2.4v-2   c0-1.3-1.1-2.4-2.4-2.4h-1.6c0.4-0.6,0.6-1.3,0.6-2.1V28.1h1.9V38c0,1.7,1.4,3.1,3.1,3.1c1.7,0,3.1-1.4,3.1-3.1V17.2L46.8,12.5z    M44.7,48.6v2c0,0.2-0.2,0.4-0.4,0.4H6.9c-0.2,0-0.4-0.2-0.4-0.4v-2c0-0.2,0.2-0.4,0.4-0.4h5h27.3h5C44.5,48.2,44.7,48.4,44.7,48.6   z M11.9,46.2c-1.1,0-2.1-0.9-2.1-2.1V7.1c0-1.1,0.9-2.1,2.1-2.1h27.3c1.1,0,2.1,0.9,2.1,2.1v37.1c0,1.1-0.9,2.1-2.1,2.1H11.9z    M47.1,18.7v-3l2.4,2.4v2.3L47.1,18.7z"></path>

</g>

</svg></svg></g></g><defs><clipPath id="SvgjsClipPath1133"><rect width="1000" height="1000" x="0" y="0" rx="500" ry="500"></rect></clipPath></defs></svg>