<svg xmlns="http://www.w3.org/2000/svg" xmlns:xlink="http://www.w3.org/1999/xlink" width="1920" zoomAndPan="magnify" viewBox="0 0 1440 1439.999935" height="1920" preserveAspectRatio="xMidYMid meet" version="1.0"><path fill="#f18e1e" d="M 719.996094 1334.730469 C 1055.691406 1334.730469 1334.734375 1055.691406 1334.734375 720 C 1334.734375 383.707031 1055.089844 105.269531 719.394531 105.269531 C 383.097656 105.269531 105.265625 383.707031 105.265625 720 C 105.265625 1055.691406 383.703125 1334.730469 719.996094 1334.730469 Z M 562.699219 870.070312 C 413.234375 721.207031 318.011719 531.359375 430.710938 418.660156 C 437.339844 412.03125 444.574219 405.402344 451.203125 398.773438 C 485.554688 366.226562 518.703125 368.035156 548.234375 409.621094 L 626.582031 521.117188 C 653.097656 559.6875 646.46875 581.382812 618.144531 611.519531 L 593.433594 638.640625 C 584.394531 647.074219 588.011719 658.527344 592.230469 665.757812 C 603.679688 687.457031 636.226562 726.027344 671.179688 760.984375 C 707.339844 797.144531 744.105469 827.878906 767.003906 840.535156 C 775.445312 845.355469 787.496094 846.5625 795.332031 839.328125 L 821.246094 814.621094 C 850.175781 786.292969 873.679688 779.0625 911.046875 805.578125 C 962.875 842.34375 994.21875 864.042969 1024.953125 885.132812 C 1062.921875 912.855469 1071.960938 947.210938 1033.390625 982.164062 C 1026.761719 988.792969 1020.734375 996.027344 1014.105469 1002.65625 C 901.402344 1114.753906 712.164062 1019.53125 562.699219 870.070312 Z M 562.699219 870.070312 " fill-opacity="1" fill-rule="nonzero"/></svg>